# xmcd CD database file
#
# Track frame offsets:
#	150
#	19388
#	32278
#	51434
#	69567
#	90382
#	109154
#	129718
#	148938
#	169878
#	188928
#	212601
#	237957
#	255874
#	277300
#	301224
#
# Disc length: 4302 seconds
#
# Revision: 0
# Processed by: cddbd v1.5.2PL0 Copyright (c) Steve Scherf et al.
# Submitted via: CDex 1.70beta2
#
DISCID=e910cc10
DTITLE=Wolfgang Buschner liest Karl May - Der Ölprinz
DYEAR=2006
DGENRE=Hörbuch Karl May
TTITLE0=Der Ölprinz-CD01-01
TTITLE1=Der Ölprinz-CD01-02
TTITLE2=Der Ölprinz-CD01-03
TTITLE3=Der Ölprinz-CD01-04
TTITLE4=Der Ölprinz-CD01-05
TTITLE5=Der Ölprinz-CD01-06
TTITLE6=Der Ölprinz-CD01-07
TTITLE7=Der Ölprinz-CD01-08
TTITLE8=Der Ölprinz-CD01-09
TTITLE9=Der Ölprinz-CD01-10
TTITLE10=Der Ölprinz-CD01-11
TTITLE11=Der Ölprinz-CD01-12
TTITLE12=Der Ölprinz-CD01-13
TTITLE13=Der Ölprinz-CD01-14
TTITLE14=Der Ölprinz-CD01-15
TTITLE15=Der Ölprinz-CD01-16 bws
EXTD=YEAR: 2006
EXTT0=
EXTT1=
EXTT2=
EXTT3=
EXTT4=
EXTT5=
EXTT6=
EXTT7=
EXTT8=
EXTT9=
EXTT10=
EXTT11=
EXTT12=
EXTT13=
EXTT14=
EXTT15=
PLAYORDER=
